<?xml version="1.0" encoding="utf-8"?>
<!-- Generator: Adobe Illustrator 27.3.1, SVG Export Plug-In . SVG Version: 6.00 Build 0)  -->
<svg version="1.1" id="Layer_1" xmlns="http://www.w3.org/2000/svg" xmlns:xlink="http://www.w3.org/1999/xlink" x="0px" y="0px"
	 viewBox="0 0 1866.6 283.5" style="enable-background:new 0 0 1866.6 283.5;" xml:space="preserve">
<style type="text/css">
	.st0{fill:#224946;}
</style>
<path d="M147.6,80.2c0,1.5-1.2,2.9-2.7,3c-18.9,1.4-30.4,16.9-30.4,35.3v49.2c0,18.4,11.5,34,30.4,35.3c1.5,0.1,2.7,1.4,2.7,3v29.5
	c0,1.7-1.4,3-3,3c-43.4-1.4-70.3-33.1-70.3-70.7v-49.2c0-37.6,26.9-69.3,70.3-70.8c1.7-0.1,3,1.3,3,3V80.2z"/>
<path d="M728,50.6c0-1.7,1.4-3,3-3c43.4,1.4,70.3,33.1,70.3,70.7v49.2c0,37.6-26.9,69.3-70.3,70.8c-1.7,0.1-3-1.3-3-3v-29.5
	c0-1.5,1.2-2.9,2.7-3c18.9-1.4,30.4-16.9,30.4-35.3v-49.2c0-18.4-11.5-34-30.4-35.3c-1.5-0.1-2.7-1.4-2.7-3V50.6z"/>
<path d="M181.4,50.6c0-1.6,1.3-2.9,2.9-2.9H273c43.6,0,71.7,32.7,71.7,71.1c0,38.2-28.1,70.9-71.7,70.9h-32c-1.6,0-2.9,1.3-2.9,2.9
	v43c0,1.6-1.3,2.9-2.9,2.9h-50.9c-1.6,0-2.9-1.3-2.9-2.9L181.4,50.6z M287,118.8c0-14.7-9.8-27-25.1-27h-20.8
	c-1.6,0-2.9,1.3-2.9,2.9v48.2c0,1.6,1.3,2.9,2.9,2.9h20.5C276.9,145.8,287,133.6,287,118.8"/>
<path d="M355.4,143.1c0-52.6,37.9-100.6,103.3-100.6c65.7,0,103.6,48,103.6,100.6s-37.9,100.6-103.6,100.6
	C393.3,243.7,355.4,195.7,355.4,143.1 M504.8,143.1c0-25.4-16.9-48.8-46.1-48.8c-28.9,0-46.1,23.5-46.1,48.8
	c0,25.4,17.2,48.8,46.1,48.8C487.9,191.9,504.8,168.4,504.8,143.1"/>
<path d="M606.6,96.1h-33.5c-1.6,0-2.9-1.3-2.9-2.9V50.5c0-1.6,1.3-2.9,2.9-2.9h129.4c1.6,0,2.9,1.3,2.9,2.9v42.7
	c0,1.6-1.3,2.9-2.9,2.9H669c-1.6,0-2.9,1.3-2.9,2.9v136.5c0,1.6-1.3,2.9-2.9,2.9h-50.9c-1.6,0-2.9-1.3-2.9-2.9V99
	C609.5,97.4,608.2,96.1,606.6,96.1"/>
<g>
	<path class="st0" d="M1015,61.4c14.3,10.7,21.5,26.7,21.5,47.8c0,22.1-7,38.7-21.1,49.9c-14.1,11.2-32.9,16.8-56.4,16.8h-21.2v65.3
		h-46.4v-196h63.4C980.6,45.3,1000.7,50.6,1015,61.4z M980.1,134.8c5.8-5.2,8.6-13.7,8.6-25.6c0-20.6-11.5-30.8-34.5-30.8h-16.4
		v64.2H955C966,142.6,974.3,140,980.1,134.8z"/>
	<path class="st0" d="M1104.7,45.3v159.3h76.4l-4.8,36.8h-118v-196H1104.7z"/>
	<path class="st0" d="M1343.7,176.2c0,13.4-2.9,25.4-8.6,35.9c-5.8,10.6-14.4,18.9-25.9,24.9c-11.5,6-25.6,9.1-42.1,9.1
		c-24.9,0-43.8-6.3-56.9-19c-13-12.6-19.5-29.6-19.5-50.9v-131h46.4v129c0,12.6,2.4,22,7.2,28.1c4.8,6.1,12.4,9.2,22.8,9.2
		c10.6,0,18.2-3.1,23.1-9.2c4.8-6.1,7.2-15.5,7.2-28.1v-129h46.4V176.2z"/>
	<path class="st0" d="M1525,64.5l-23.5,24.6c-7-5.3-13.4-9.1-19.4-11.5c-5.9-2.4-12.8-3.5-20.5-3.5c-14.5,0-26.1,5.7-34.8,17.1
		c-8.7,11.4-13,28.7-13,51.9c0,25.1,3.3,42.9,9.9,53.3c6.6,10.5,16.9,15.7,30.8,15.7c9.8,0,18.7-2.2,26.6-6.5v-44.4h-25.5l-4.5-32.8
		h75v97c-10.2,6.6-21.4,11.7-33.7,15.3c-12.3,3.6-24.5,5.4-36.8,5.4c-29.8,0-52.2-8.7-67.3-26.2c-15.1-17.4-22.6-43-22.6-76.8
		c0-21.5,4.1-40,12.3-55.4c8.2-15.5,19.4-27.2,33.7-35.2c14.2-8,30.2-12,47.9-12C1484.9,40.5,1506.7,48.5,1525,64.5z"/>
	<path class="st0" d="M1600.8,45.3v196h-46.4v-196H1600.8z"/>
	<path class="st0" d="M1785.5,241.3h-59.1l-56.6-151.9c1.9,14.9,3.3,28.1,4.4,39.5c1,11.4,1.6,24.9,1.6,40.6v71.8h-41.3v-196h57.7
		l58,152.2c-4.2-25.8-6.2-50.2-6.2-73V45.3h41.6V241.3z"/>
</g>
<g>
	<path class="st0" d="M891.4-407.2v-196h116.8l-4.8,33.1h-65.6v52h57.1v33.1h-57.1v77.8H891.4z"/>
	<path class="st0" d="M1165.3-581.2c15.6,17.9,23.3,43.2,23.3,75.8c0,21.3-3.5,39.7-10.6,55.2c-7.1,15.5-17.3,27.3-30.5,35.5
		c-13.3,8.2-29.1,12.3-47.4,12.3c-18.3,0-34-4.1-47.2-12.2c-13.2-8.1-23.3-19.8-30.4-35.2c-7.1-15.4-10.6-33.9-10.6-55.6
		c0-21.1,3.5-39.4,10.6-54.9c7.1-15.5,17.2-27.3,30.4-35.5c13.2-8.2,28.9-12.3,47.2-12.3C1128-608.1,1149.8-599.1,1165.3-581.2z
		 M1070.3-557.8c-6.5,10.8-9.8,28.3-9.8,52.5c0,24.1,3.3,41.7,9.9,52.6c6.6,10.9,16.5,16.4,29.7,16.4c13.6,0,23.6-5.4,30.1-16.3
		c6.5-10.8,9.8-28.4,9.8-52.8c0-24.3-3.3-41.9-9.9-52.6c-6.6-10.7-16.6-16.1-30-16.1C1086.7-574.1,1076.8-568.7,1070.3-557.8z"/>
	<path class="st0" d="M1358-581.2c15.6,17.9,23.3,43.2,23.3,75.8c0,21.3-3.5,39.7-10.6,55.2c-7.1,15.5-17.3,27.3-30.5,35.5
		c-13.3,8.2-29.1,12.3-47.4,12.3c-18.3,0-34-4.1-47.2-12.2c-13.2-8.1-23.3-19.8-30.4-35.2c-7.1-15.4-10.6-33.9-10.6-55.6
		c0-21.1,3.5-39.4,10.6-54.9c7.1-15.5,17.2-27.3,30.4-35.5c13.2-8.2,28.9-12.3,47.2-12.3C1320.7-608.1,1342.4-599.1,1358-581.2z
		 M1262.9-557.8c-6.5,10.8-9.8,28.3-9.8,52.5c0,24.1,3.3,41.7,9.9,52.6c6.6,10.9,16.5,16.4,29.7,16.4c13.6,0,23.6-5.4,30.1-16.3
		c6.5-10.8,9.8-28.4,9.8-52.8c0-24.3-3.3-41.9-9.9-52.6c-6.6-10.7-16.6-16.1-30-16.1C1279.4-574.1,1269.4-568.7,1262.9-557.8z"/>
	<path class="st0" d="M1534.8-582.5c18.6,13.9,27.9,39.3,27.9,76.2c0,36.4-9.1,62-27.2,76.8c-18.1,14.8-41.6,22.2-70.4,22.2h-58.8
		v-196h54.6C1491.5-603.2,1516.2-596.3,1534.8-582.5z M1452.6-569.6v128.7h15.3c15.3,0,26.9-4.8,34.8-14.3
		c7.9-9.5,11.9-26.5,11.9-51.1c0-16.8-2-29.8-5.9-39c-4-9.2-9.3-15.6-16.1-19.1c-6.8-3.5-15.2-5.2-25.2-5.2H1452.6z"/>
	<path class="st0" d="M1700.2-602.7c9.5,3.6,18.5,9,27,16.1l-22.1,26.3c-5.8-4.5-11.6-7.9-17.3-10.2c-5.7-2.3-11.7-3.4-18.1-3.4
		c-13.2,0-23.6,5.6-31.3,16.7c-7.6,11.1-11.5,28.3-11.5,51.5c0,22.8,3.8,39.7,11.5,50.8s18.2,16.5,31.8,16.5
		c7.2,0,13.7-1.4,19.5-4.1c5.8-2.7,12.2-6.6,19-11.7l20.6,26.6c-7.4,7.4-16.3,13.4-26.7,18.1c-10.5,4.7-22,7.1-34.7,7.1
		c-18.1,0-33.9-4-47.2-11.9c-13.4-7.9-23.8-19.7-31.3-35.2c-7.5-15.6-11.2-34.3-11.2-56.2c0-21.3,3.8-39.7,11.5-55.2
		c7.6-15.5,18.2-27.2,31.7-35.2c13.5-8,28.8-12,46-12C1679.8-608.1,1690.7-606.3,1700.2-602.7z"/>
	<path class="st0" d="M1886.1-581.2c15.6,17.9,23.3,43.2,23.3,75.8c0,21.3-3.5,39.7-10.6,55.2c-7.1,15.5-17.3,27.3-30.5,35.5
		c-13.3,8.2-29.1,12.3-47.4,12.3c-18.3,0-34-4.1-47.2-12.2c-13.2-8.1-23.3-19.8-30.4-35.2c-7.1-15.4-10.6-33.9-10.6-55.6
		c0-21.1,3.5-39.4,10.6-54.9c7.1-15.5,17.2-27.3,30.4-35.5c13.2-8.2,28.9-12.3,47.2-12.3C1848.8-608.1,1870.5-599.1,1886.1-581.2z
		 M1791.1-557.8c-6.5,10.8-9.8,28.3-9.8,52.5c0,24.1,3.3,41.7,9.9,52.6c6.6,10.9,16.5,16.4,29.7,16.4c13.6,0,23.6-5.4,30.1-16.3
		c6.5-10.8,9.8-28.4,9.8-52.8c0-24.3-3.3-41.9-9.9-52.6c-6.6-10.7-16.6-16.1-30-16.1C1807.5-574.1,1797.6-568.7,1791.1-557.8z"/>
	<path class="st0" d="M2078.7-581.2c15.6,17.9,23.3,43.2,23.3,75.8c0,21.3-3.5,39.7-10.6,55.2c-7.1,15.5-17.3,27.3-30.5,35.5
		c-13.3,8.2-29.1,12.3-47.4,12.3c-18.3,0-34-4.1-47.2-12.2c-13.2-8.1-23.3-19.8-30.4-35.2c-7.1-15.4-10.6-33.9-10.6-55.6
		c0-21.1,3.5-39.4,10.6-54.9c7.1-15.5,17.2-27.3,30.4-35.5c13.2-8.2,28.9-12.3,47.2-12.3C2041.4-608.1,2063.2-599.1,2078.7-581.2z
		 M1983.7-557.8c-6.5,10.8-9.8,28.3-9.8,52.5c0,24.1,3.3,41.7,9.9,52.6c6.6,10.9,16.5,16.4,29.7,16.4c13.6,0,23.6-5.4,30.1-16.3
		c6.5-10.8,9.8-28.4,9.8-52.8c0-24.3-3.3-41.9-9.9-52.6c-6.6-10.7-16.6-16.1-30-16.1C2000.1-574.1,1990.2-568.7,1983.7-557.8z"/>
	<path class="st0" d="M2250.6-587.1c14.3,10.7,21.5,26.7,21.5,47.8c0,22.1-7,38.7-21.1,49.9c-14.1,11.2-32.9,16.8-56.4,16.8h-21.2
		v65.3H2127v-196h63.4C2216.2-603.2,2236.2-597.9,2250.6-587.1z M2215.6-513.7c5.8-5.2,8.6-13.7,8.6-25.6
		c0-20.6-11.5-30.8-34.5-30.8h-16.4v64.2h17.3C2201.5-505.9,2209.9-508.5,2215.6-513.7z"/>
	<path class="st0" d="M2481.7-587.1c14.3,10.7,21.5,26.7,21.5,47.8c0,22.1-7,38.7-21.1,49.9c-14.1,11.2-32.9,16.8-56.4,16.8h-21.2
		v65.3h-46.4v-196h63.4C2447.3-603.2,2467.3-597.9,2481.7-587.1z M2446.7-513.7c5.8-5.2,8.6-13.7,8.6-25.6
		c0-20.6-11.5-30.8-34.5-30.8h-16.4v64.2h17.3C2432.6-505.9,2441-508.5,2446.7-513.7z"/>
	<path class="st0" d="M2571.3-603.2V-444h76.4l-4.8,36.8h-118v-196H2571.3z"/>
	<path class="st0" d="M2810.4-472.3c0,13.4-2.9,25.4-8.6,35.9c-5.8,10.6-14.4,18.9-25.9,24.9c-11.5,6-25.6,9.1-42.1,9.1
		c-24.9,0-43.8-6.3-56.9-19c-13-12.6-19.5-29.6-19.5-50.9v-131h46.4v129c0,12.6,2.4,22,7.2,28.1c4.8,6.1,12.4,9.2,22.8,9.2
		c10.6,0,18.2-3.1,23.1-9.2c4.8-6.1,7.2-15.5,7.2-28.1v-129h46.4V-472.3z"/>
	<path class="st0" d="M2991.7-584l-23.5,24.6c-7-5.3-13.4-9.1-19.4-11.5c-5.9-2.4-12.8-3.5-20.5-3.5c-14.5,0-26.1,5.7-34.8,17.1
		c-8.7,11.4-13,28.7-13,51.9c0,25.1,3.3,42.9,9.9,53.3c6.6,10.5,16.9,15.7,30.8,15.7c9.8,0,18.7-2.2,26.6-6.5v-44.4h-25.5l-4.5-32.8
		h75v97c-10.2,6.6-21.4,11.7-33.7,15.3c-12.3,3.6-24.5,5.4-36.8,5.4c-29.8,0-52.2-8.7-67.3-26.2c-15.1-17.4-22.6-43-22.6-76.8
		c0-21.5,4.1-40,12.3-55.4c8.2-15.5,19.4-27.2,33.7-35.2c14.2-8,30.2-12,47.9-12C2951.6-608.1,2973.4-600,2991.7-584z"/>
	<path class="st0" d="M3067.5-603.2v196h-46.4v-196H3067.5z"/>
	<path class="st0" d="M3252.2-407.2h-59.1l-56.6-151.9c1.9,14.9,3.3,28.1,4.4,39.5c1,11.4,1.6,24.9,1.6,40.6v71.8h-41.3v-196h57.7
		l58,152.2c-4.2-25.8-6.2-50.2-6.2-73v-79.2h41.6V-407.2z"/>
</g>
</svg>
